<svg width="34" height="34" viewBox="0 0 34 34" fill="none" xmlns="http://www.w3.org/2000/svg">
<path d="M27.625 24.0833L29.1667 24.0833C30.2713 24.0833 31.1667 23.1879 31.1667 22.0833L31.1667 6.25C31.1667 5.14543 30.2713 4.25 29.1667 4.25L4.83335 4.25C3.72878 4.25 2.83335 5.14543 2.83335 6.25L2.83335 22.0833C2.83335 23.1879 3.72878 24.0833 4.83335 24.0833L13.4584 24.0833" stroke="#FF8C42" stroke-width="1.5" stroke-linecap="round"/>
<path d="M24.0833 20.5417C24.0833 22.4977 22.4977 24.0833 20.5417 24.0833C18.5857 24.0833 17 22.4977 17 20.5417C17 18.5857 18.5857 17 20.5417 17C22.4977 17 24.0833 18.5857 24.0833 20.5417Z" fill="#FF8C42" stroke="#FF8C42" stroke-width="1.5"/>
<path d="M8.5 9.91669H25.5" stroke="#FF8C42" stroke-width="1.5" stroke-linecap="round"/>
<path d="M8.5 15.5833H14.1667" stroke="#FF8C42" stroke-width="1.5" stroke-linecap="round"/>
<path d="M17.7083 22.6667V29.75L20.5416 28.3334L23.375 29.75V22.6667" stroke="#FF8C42" stroke-width="1.5" stroke-linecap="round" stroke-linejoin="round"/>
</svg>
