<svg width="20" height="20" viewBox="0 0 20 20" fill="none" xmlns="http://www.w3.org/2000/svg">
<path d="M9.90918 8.47278L9.90919 16.3273" stroke="#18191C" stroke-width="1.55152" stroke-linecap="round" stroke-linejoin="round"/>
<path d="M9.90919 3.52722L9.90918 5.56359" stroke="#18191C" stroke-width="1.55152" stroke-linecap="round" stroke-linejoin="round"/>
<path d="M9.90914 8.47269C10.7125 8.47269 11.3637 7.82147 11.3637 7.01814C11.3637 6.21482 10.7125 5.5636 9.90914 5.5636C9.10581 5.5636 8.45459 6.21482 8.45459 7.01814C8.45459 7.82147 9.10581 8.47269 9.90914 8.47269Z" stroke="#18191C" stroke-width="1.55152" stroke-linecap="round" stroke-linejoin="round"/>
<path d="M15.1455 14.2909L15.1456 16.3273" stroke="#18191C" stroke-width="1.55152" stroke-linecap="round" stroke-linejoin="round"/>
<path d="M15.1456 3.52722L15.1455 11.3818" stroke="#18191C" stroke-width="1.55152" stroke-linecap="round" stroke-linejoin="round"/>
<path d="M15.1455 14.2909C15.9488 14.2909 16.6 13.6397 16.6 12.8364C16.6 12.0331 15.9488 11.3818 15.1455 11.3818C14.3421 11.3818 13.6909 12.0331 13.6909 12.8364C13.6909 13.6397 14.3421 14.2909 15.1455 14.2909Z" stroke="#18191C" stroke-width="1.55152" stroke-linecap="round" stroke-linejoin="round"/>
<path d="M4.67291 11.9636L4.67285 16.3273" stroke="#18191C" stroke-width="1.55152" stroke-linecap="round" stroke-linejoin="round"/>
<path d="M4.67285 3.52722L4.67291 9.05449" stroke="#18191C" stroke-width="1.55152" stroke-linecap="round" stroke-linejoin="round"/>
<path d="M4.67281 11.9637C5.47613 11.9637 6.12735 11.3124 6.12735 10.5091C6.12735 9.70579 5.47613 9.05457 4.67281 9.05457C3.86948 9.05457 3.21826 9.70579 3.21826 10.5091C3.21826 11.3124 3.86948 11.9637 4.67281 11.9637Z" stroke="#18191C" stroke-width="1.55152" stroke-linecap="round" stroke-linejoin="round"/>
</svg>
