<svg width="19" height="20" viewBox="0 0 19 20" fill="none" xmlns="http://www.w3.org/2000/svg">
<path d="M9.36975 10.509C10.6551 10.509 11.697 9.46708 11.697 8.18176C11.697 6.89645 10.6551 5.85449 9.36975 5.85449C8.08444 5.85449 7.04248 6.89645 7.04248 8.18176C7.04248 9.46708 8.08444 10.509 9.36975 10.509Z" stroke="#0A65CC" stroke-width="1.55152" stroke-linecap="round" stroke-linejoin="round"/>
<path d="M15.1876 8.18183C15.1876 13.4182 9.36945 17.4909 9.36945 17.4909C9.36945 17.4909 3.55127 13.4182 3.55127 8.18183C3.55127 6.63875 4.16425 5.15887 5.25538 4.06775C6.3465 2.97663 7.82637 2.36365 9.36945 2.36365C10.9125 2.36365 12.3924 2.97663 13.4835 4.06775C14.5746 5.15887 15.1876 6.63875 15.1876 8.18183V8.18183Z" stroke="#0A65CC" stroke-width="1.55152" stroke-linecap="round" stroke-linejoin="round"/>
</svg>
