<svg width="38" height="38" viewBox="0 0 38 38" fill="none" xmlns="http://www.w3.org/2000/svg">
<rect x="0.576172" y="0.36377" width="37.1519" height="37.1519" rx="3.09599" fill="#EDEFF5"/>
<g clip-path="url(#clip0_110_603)">
<path d="M13.9811 20.8774L13.3345 23.2912L10.9712 23.3412C10.2649 22.0312 9.86426 20.5324 9.86426 18.9397C9.86426 17.3995 10.2388 15.9471 10.9028 14.6682H10.9033L13.0073 15.054L13.929 17.1453C13.7361 17.7077 13.6309 18.3115 13.6309 18.9397C13.631 19.6215 13.7545 20.2747 13.9811 20.8774Z" fill="#FBBB00"/>
<path d="M28.278 17.2046C28.3846 17.7664 28.4402 18.3467 28.4402 18.9397C28.4402 19.6047 28.3703 20.2533 28.2371 20.879C27.785 23.0081 26.6036 24.8672 24.967 26.1828L24.9665 26.1823L22.3163 26.0471L21.9413 23.7057C23.0272 23.0688 23.8759 22.0721 24.323 20.879H19.3564V17.2046H24.3954H28.278Z" fill="#518EF8"/>
<path d="M24.9664 26.1823L24.9669 26.1828C23.3753 27.4622 21.3533 28.2277 19.1523 28.2277C15.6152 28.2277 12.54 26.2507 10.9712 23.3413L13.9811 20.8774C14.7655 22.9708 16.7849 24.461 19.1523 24.461C20.1699 24.461 21.1232 24.1859 21.9412 23.7057L24.9664 26.1823Z" fill="#28B446"/>
<path d="M25.0808 11.7901L22.0719 14.2535C21.2253 13.7243 20.2245 13.4186 19.1523 13.4186C16.7313 13.4186 14.6742 14.9771 13.9291 17.1455L10.9033 14.6684H10.9028C12.4486 11.6881 15.5626 9.65186 19.1523 9.65186C21.4059 9.65186 23.4722 10.4546 25.0808 11.7901Z" fill="#F14336"/>
</g>
<defs>
<clipPath id="clip0_110_603">
<rect width="18.576" height="18.576" fill="white" transform="translate(9.86426 9.65186)"/>
</clipPath>
</defs>
</svg>
