<svg width="18" height="16" viewBox="0 0 18 16" fill="none" xmlns="http://www.w3.org/2000/svg">
<path d="M14.3333 4.66669H3.66658C2.9302 4.66669 2.33325 5.26364 2.33325 6.00001V12.6667C2.33325 13.403 2.9302 14 3.66658 14H14.3333C15.0696 14 15.6666 13.403 15.6666 12.6667V6.00001C15.6666 5.26364 15.0696 4.66669 14.3333 4.66669Z" stroke="#384853" stroke-width="1.41176" stroke-linecap="round" stroke-linejoin="round"/>
<path d="M11.6666 14V3.33334C11.6666 2.97971 11.5261 2.64057 11.276 2.39052C11.026 2.14048 10.6869 2 10.3333 2H7.66658C7.31296 2 6.97383 2.14048 6.72377 2.39052C6.47372 2.64057 6.33325 2.97971 6.33325 3.33334V14" stroke="#384853" stroke-width="1.41176" stroke-linecap="round" stroke-linejoin="round"/>
</svg>
